<?xml version="1.0" encoding="UTF-8"?>
<svg version="1.1" xmlns="http://www.w3.org/2000/svg" width="183" height="184">
<path d="M0 0 C60.39 0 120.78 0 183 0 C183 60.72 183 121.44 183 184 C122.61 184 62.22 184 0 184 C0 123.28 0 62.56 0 0 Z " fill="#FBFDFD" transform="translate(0,0)"/>
<path d="M0 0 C1.58294782 -0.05437607 3.16644256 -0.09296271 4.75 -0.125 C5.63171875 -0.14820312 6.5134375 -0.17140625 7.421875 -0.1953125 C11.63567833 0.12391503 13.29665052 1.19851828 16.0897522 4.38131714 C19.04186003 8.96978504 18.54202396 13.98299429 18.48583984 19.26611328 C18.48963654 20.39197845 18.49343323 21.51784363 18.49734497 22.67782593 C18.50474313 26.39227317 18.48337956 30.10593501 18.4609375 33.8203125 C18.45855287 36.4029023 18.45764779 38.98549386 18.4581604 41.56808472 C18.45503378 46.97666095 18.43896451 52.38495433 18.41162109 57.79345703 C18.38014157 64.04310578 18.36962617 70.29250842 18.3710922 76.54223073 C18.37231346 82.56186288 18.36188097 88.5813949 18.34550858 94.60100937 C18.33913772 97.1599161 18.33520101 99.71883006 18.33372116 102.27774429 C18.32939325 105.84951402 18.31190366 109.4209727 18.29052734 112.99267578 C18.29143372 114.05355408 18.29234009 115.11443237 18.29327393 116.2074585 C18.28474396 117.18032806 18.27621399 118.15319763 18.26742554 119.1555481 C18.26407385 119.9994919 18.26072216 120.84343571 18.25726891 121.71295357 C17.97714257 124.203196 17.24849138 125.84501464 16 128 C15.34 128 14.68 128 14 128 C14 128.66 14 129.32 14 130 C13.34 130 12.68 130 12 130 C12 130.66 12 131.32 12 132 C2.0395594 132.78497343 2.0395594 132.78497343 -2.0625 129.6875 C-6.25053833 123.87828554 -6.25053833 123.87828554 -6.24050903 119.15950012 C-6.24325836 118.16250595 -6.24600769 117.16551178 -6.24884033 116.13830566 C-6.24164978 115.04570435 -6.23445923 113.95310303 -6.22705078 112.82739258 C-6.22734283 111.67603317 -6.22763489 110.52467377 -6.22793579 109.33842468 C-6.2265398 105.52371751 -6.21096571 101.70920441 -6.1953125 97.89453125 C-6.19158333 95.25323086 -6.18873591 92.61192909 -6.18673706 89.97062683 C-6.18051893 83.72331653 -6.16410364 77.47607616 -6.14403808 71.22879666 C-6.12168942 64.11641761 -6.11068825 57.00403523 -6.10064721 49.89162982 C-6.07973768 35.26105046 -6.04455524 20.63052621 -6 6 C-5.34 6 -4.68 6 -4 6 C-3.34 4.68 -2.68 3.36 -2 2 C-1.34 2 -0.68 2 0 2 C0 1.34 0 0.68 0 0 Z " fill="#089AA9" transform="translate(144,31)"/>
<path d="M0 0 C2.57351633 1.40993053 3.96168913 2.80489599 6 5 C6 5.66 6 6.32 6 7 C6.66 7 7.32 7 8 7 C8.11587487 17.47461563 8.20470578 27.94907868 8.25906086 38.42420483 C8.2851494 43.2883233 8.32053384 48.15200313 8.37719727 53.01586914 C8.43154363 57.71024699 8.46142613 62.40420306 8.47438622 67.09887123 C8.48362141 68.88947502 8.50165593 70.68005585 8.52865028 72.47047997 C8.5649767 74.97976848 8.56994403 77.48731681 8.56762695 79.99682617 C8.58560333 80.73625961 8.60357971 81.47569305 8.62210083 82.23753357 C8.58255155 86.19872039 8.13700492 87.83302924 5.58952332 90.93769836 C1.42823425 94.25175744 -1.79976356 94.39703854 -7 94 C-10.58981172 93.05174785 -12.90271369 92.06485754 -16 90 C-17.48416559 86.36864711 -17.16226429 82.34802041 -17.17700195 78.48095703 C-17.18357315 77.72923218 -17.19014435 76.97750732 -17.19691467 76.20300293 C-17.21658711 73.72127169 -17.22829525 71.23960072 -17.23828125 68.7578125 C-17.24235678 67.90842983 -17.2464323 67.05904716 -17.25063133 66.18392563 C-17.27146388 61.69016515 -17.28577908 57.19643499 -17.29516602 52.70263672 C-17.30623889 48.06665874 -17.34065673 43.4311596 -17.38033772 38.79535103 C-17.40650009 35.22479367 -17.41485738 31.65435068 -17.41844749 28.0837059 C-17.42331258 26.37490471 -17.43492439 24.66610859 -17.45348549 22.95740128 C-17.47787505 20.56382601 -17.47691306 18.17149392 -17.4699707 15.77783203 C-17.48278076 15.07633026 -17.49559082 14.37482849 -17.50878906 13.65206909 C-17.45621181 8.66397873 -16.10507579 5.85230034 -13 2 C-9.02403765 -0.71088342 -4.6488311 -0.810936 0 0 Z " fill="#099AAA" transform="translate(83,32)"/>
<path d="M0 0 C3.55062667 2.16125101 5.54391591 4.13253659 7 8 C7.18009982 10.60604286 7.25290235 13.10194348 7.22705078 15.70605469 C7.22734283 16.47717087 7.22763489 17.24828705 7.22793579 18.04277039 C7.22654493 20.5859206 7.21099527 23.1287761 7.1953125 25.671875 C7.1915815 27.43735596 7.18873494 29.20283899 7.18673706 30.96832275 C7.17910743 35.61095922 7.15946467 40.25347019 7.1373291 44.89605713 C7.11685626 49.63511457 7.10773226 54.37419232 7.09765625 59.11328125 C7.07621817 68.40890925 7.04209027 77.70444418 7 87 C6.34 87 5.68 87 5 87 C4.731875 87.598125 4.46375 88.19625 4.1875 88.8125 C2.95525782 91.0824198 2.01245509 92.39094244 0 94 C-2.33984375 94.3984375 -2.33984375 94.3984375 -4.9375 94.375 C-6.21947266 94.38660156 -6.21947266 94.38660156 -7.52734375 94.3984375 C-10.45632724 93.9264686 -11.86420296 93.03173269 -14 91 C-14 90.34 -14 89.68 -14 89 C-14.66 89 -15.32 89 -16 89 C-17.50556861 85.98886277 -17.13861111 82.88655106 -17.12939453 79.58447266 C-17.13114685 78.8200737 -17.13289917 78.05567474 -17.13470459 77.26811218 C-17.13911678 74.73340606 -17.13618675 72.19876937 -17.1328125 69.6640625 C-17.13348586 67.90530382 -17.13445616 66.14654523 -17.13571167 64.38778687 C-17.1371879 60.69731767 -17.135037 57.00687264 -17.13037109 53.31640625 C-17.12468222 48.58620586 -17.12794795 43.85606232 -17.13394356 39.12586403 C-17.13755832 35.49190849 -17.13640622 31.85796641 -17.13381577 28.22401047 C-17.1331486 26.48009611 -17.13396759 24.73618054 -17.13629532 22.99226761 C-17.13883589 20.55291769 -17.134961 18.1136595 -17.12939453 15.67431641 C-17.13141876 14.95313126 -17.13344299 14.23194611 -17.13552856 13.48890686 C-17.12155521 10.18203654 -17.02312962 7.16218716 -16 4 C-15.34 4 -14.68 4 -14 4 C-14 3.34 -14 2.68 -14 2 C-9.03312696 0.01325078 -5.2749095 -0.50237233 0 0 Z " fill="#089AA9" transform="translate(119,68)"/>
<path d="M0 0 C2.77305492 2.94637085 3.12470364 5.33493178 3.14526367 9.22583008 C3.15164352 10.04710892 3.15802338 10.86838776 3.16459656 11.71455383 C3.16570938 12.59894638 3.1668222 13.48333893 3.16796875 14.39453125 C3.17129715 15.30829025 3.17462555 16.22204926 3.17805481 17.16349792 C3.18311825 19.09768165 3.18546331 21.03187411 3.18530273 22.96606445 C3.18748386 25.91567525 3.20563094 28.86490877 3.22460938 31.81445312 C3.22754454 33.69531122 3.22952851 35.5761711 3.23046875 37.45703125 C3.23765427 38.3353511 3.24483978 39.21367096 3.25224304 40.11860657 C3.23468838 44.85862375 2.8331779 48.66897455 1 53.125 C0.34 53.125 -0.32 53.125 -1 53.125 C-1 53.785 -1 54.445 -1 55.125 C-5.02695301 57.80963534 -8.26758378 57.92983269 -13 57.125 C-15.64189069 55.7288789 -16.94143113 54.39470414 -19 52.125 C-19 51.135 -19 50.145 -19 49.125 C-19.66 49.125 -20.32 49.125 -21 49.125 C-21.07431567 42.96861392 -21.12868084 36.81249065 -21.16479492 30.65576172 C-21.17985469 28.56261647 -21.20030671 26.46950264 -21.22631836 24.37646484 C-21.26282501 21.36287672 -21.27975473 18.34970688 -21.29296875 15.3359375 C-21.30845261 14.40445892 -21.32393646 13.47298035 -21.33988953 12.51327515 C-21.34122887 7.30905549 -20.9970792 3.58971879 -18 -0.875 C-12.19688255 -4.05289765 -5.50069505 -3.4379344 0 0 Z " fill="#089AAA" transform="translate(52,105.875)"/>
<path d="M0 0 C2.75475046 0.67506062 3.84240341 1.27115083 5.69140625 3.37890625 C8.00044675 7.38124312 8.68234052 10.36369736 8.7434082 14.93505859 C8.75624344 15.77628265 8.76907867 16.61750671 8.78230286 17.48422241 C8.78968979 18.38532745 8.79707672 19.2864325 8.8046875 20.21484375 C8.81679512 21.6166539 8.81679512 21.6166539 8.82914734 23.04678345 C8.84296137 25.02205565 8.85369548 26.99735145 8.86157227 28.97265625 C8.87310819 30.98998011 8.89358532 33.00727307 8.9230957 35.02441406 C8.96578088 37.94226789 8.98194124 40.85921643 8.9921875 43.77734375 C9.00969559 44.67440033 9.02720367 45.57145691 9.04524231 46.49569702 C9.02564198 52.17385571 8.28666992 55.27239071 4.56640625 59.62890625 C2.81640625 60.50390625 2.81640625 60.50390625 0.56640625 60.62890625 C-0.38685547 60.68498047 -0.38685547 60.68498047 -1.359375 60.7421875 C-5.26376987 60.87780633 -7.12054124 60.83760793 -10.43359375 58.62890625 C-10.43359375 57.63890625 -10.43359375 56.64890625 -10.43359375 55.62890625 C-11.09359375 55.62890625 -11.75359375 55.62890625 -12.43359375 55.62890625 C-12.43359375 54.96890625 -12.43359375 54.30890625 -12.43359375 53.62890625 C-13.09359375 53.62890625 -13.75359375 53.62890625 -14.43359375 53.62890625 C-14.58619886 47.20628435 -14.69099813 40.78413279 -14.76318359 34.36010742 C-14.7932867 32.17666147 -14.83417945 29.99333575 -14.88623047 27.81030273 C-14.95932938 24.6648996 -14.99311542 21.52109995 -15.01953125 18.375 C-15.05049896 17.40493515 -15.08146667 16.4348703 -15.1133728 15.43540955 C-15.11631716 9.4553821 -14.16931997 6.22673341 -10.00053406 1.86972046 C-6.79641223 -0.66752992 -3.87690809 -0.24791113 0 0 Z " fill="#0498A8" transform="translate(45.43359375,30.37109375)"/>
<path d="M0 0 C2.73459402 1.08263791 3.7154006 1.53041099 5.25 4.0625 C6.37546086 8.47055502 7.08917579 13.82164842 5 18 C4.34 18 3.68 18 3 18 C2.690625 18.804375 2.38125 19.60875 2.0625 20.4375 C1 23 1 23 0 24 C-1.60048202 24.12535652 -3.20715928 24.17574787 -4.8125 24.1875 C-5.68519531 24.20167969 -6.55789062 24.21585938 -7.45703125 24.23046875 C-10.17150629 23.98445642 -11.74666668 23.5206236 -14 22 C-15.25 18.875 -15.25 18.875 -16 16 C-16.66 16 -17.32 16 -18 16 C-18.60012915 11.09894526 -18.66402859 7.0955291 -15.75 2.9375 C-11.45149834 -1.50497061 -5.74528906 -0.90420287 0 0 Z " fill="#0C9CAB" transform="translate(84,139)"/>
<path d="M0 0 C3.02089981 1.7475743 5.41608883 3.83217766 7 7 C7.0955931 8.66444461 7.12984645 10.33281963 7.125 12 C7.12886719 13.3303125 7.12886719 13.3303125 7.1328125 14.6875 C7 17 7 17 6 19 C5.34 19 4.68 19 4 19 C4 19.66 4 20.32 4 21 C0.88610696 22.81643761 -1.40777709 23.2719038 -5 23.25 C-6.2684375 23.25773437 -6.2684375 23.25773437 -7.5625 23.265625 C-10.18623439 22.97970523 -11.79158639 22.43156015 -14 21 C-16.29802683 16.28904501 -16.80567352 11.15827555 -16 6 C-14.25 3.5625 -14.25 3.5625 -12 2 C-11.4225 1.5875 -10.845 1.175 -10.25 0.75 C-6.79438182 -0.40187273 -3.55517139 -0.68919829 0 0 Z " fill="#0E9CAC" transform="translate(119,32)"/>
<path d="M0 0 C1 2 1 2 0.57058716 3.67326355 C-0.21752196 6.88700956 -0.12737355 9.91947033 -0.12939453 13.2277832 C-0.13114685 13.94864105 -0.13289917 14.6694989 -0.13470459 15.41220093 C-0.13910019 17.79175231 -0.13619224 20.17122913 -0.1328125 22.55078125 C-0.13348642 24.20981358 -0.13445718 25.86884581 -0.13571167 27.52787781 C-0.13718572 31.00549255 -0.13504428 34.4830816 -0.13037109 37.96069336 C-0.12468732 42.40580713 -0.12794608 46.85086034 -0.13394356 51.29597187 C-0.13756844 54.72330679 -0.1364015 58.15062751 -0.13381577 61.57796288 C-0.13315113 63.21612747 -0.13395863 64.85429337 -0.13629532 66.49245644 C-0.13885204 68.78968304 -0.13493837 71.08681369 -0.12939453 73.3840332 C-0.12859894 74.68879105 -0.12780334 75.99354889 -0.12698364 77.33784485 C-0.00035713 80.98970063 0.41429741 84.39943158 1 88 C0.01 87.67 -0.98 87.34 -2 87 C-3.53224766 83.40010153 -3.15504219 79.31781545 -3.16113281 75.46508789 C-3.16858017 74.33509117 -3.16858017 74.33509117 -3.17617798 73.18226624 C-3.19075673 70.69572022 -3.19759354 68.20923794 -3.203125 65.72265625 C-3.20887888 63.99157205 -3.21463659 62.26048786 -3.22039795 60.52940369 C-3.23089496 56.9021678 -3.23674649 53.27495401 -3.24023438 49.64770508 C-3.24572403 45.00274854 -3.26976748 40.3580844 -3.29820633 35.71321964 C-3.31683779 32.13841397 -3.32203852 28.56367878 -3.32357025 24.98882866 C-3.32659489 23.27642654 -3.33461709 21.56402561 -3.34775543 19.85167122 C-3.36483088 17.45565672 -3.36293257 15.06035748 -3.35644531 12.66430664 C-3.3656601 11.95920959 -3.37487488 11.25411255 -3.3843689 10.52764893 C-3.34753144 6.17926309 -2.56885435 3.51324865 0 0 Z " fill="#52B8C3" transform="translate(69,35)"/>
<path d="M0 0 C2.3203125 0.90234375 2.3203125 0.90234375 4 2 C4.75 4.125 4.75 4.125 5 6 C4.34 6 3.68 6 3 6 C3 5.01 3 4.02 3 3 C1.68 3 0.36 3 -1 3 C-1 2.34 -1 1.68 -1 1 C-3.97 1 -6.94 1 -10 1 C-10.66 2.32 -11.32 3.64 -12 5 C-12.804375 6.11375 -12.804375 6.11375 -13.625 7.25 C-15.51972222 11.03944443 -15.21389987 13.79330254 -15 18 C-15.33 17.34 -15.66 16.68 -16 16 C-16.66 16 -17.32 16 -18 16 C-18.60012915 11.09894526 -18.66402859 7.0955291 -15.75 2.9375 C-11.45149834 -1.50497061 -5.74528906 -0.90420287 0 0 Z " fill="#5CBCC6" transform="translate(84,139)"/>
<path d="M0 0 C0.33 0.66 0.66 1.32 1 2 C0.07767578 1.98259766 0.07767578 1.98259766 -0.86328125 1.96484375 C-2.07564453 1.95130859 -2.07564453 1.95130859 -3.3125 1.9375 C-4.11300781 1.92589844 -4.91351563 1.91429687 -5.73828125 1.90234375 C-8.16861334 1.90342145 -8.16861334 1.90342145 -11 3 C-12.10836423 4.88316159 -12.10836423 4.88316159 -13 7 C-13.99 8.485 -13.99 8.485 -15 10 C-15.66 10 -16.32 10 -17 10 C-16.60248402 6.55486151 -15.03670108 3.82672709 -12.80859375 1.1953125 C-9.05580507 -1.28493228 -4.30383436 -0.40701761 0 0 Z " fill="#66C0CA" transform="translate(48,31)"/>
<path d="M0 0 C0.66 0 1.32 0 2 0 C2 0.66 2 1.32 2 2 C2.99 2 3.98 2 5 2 C5 2.66 5 3.32 5 4 C7.31 4 9.62 4 12 4 C12 3.34 12 2.68 12 2 C13.65 1.67 15.3 1.34 17 1 C17 1.66 17 2.32 17 3 C16.34 3 15.68 3 15 3 C15 3.66 15 4.32 15 5 C4.8719787 5.6286358 4.8719787 5.6286358 1.3125 3.0625 C0 1 0 1 0 0 Z " fill="#77C7D0" transform="translate(141,158)"/>
<path d="M0 0 C1.58294782 -0.05437607 3.16644256 -0.09296271 4.75 -0.125 C5.63171875 -0.14820312 6.5134375 -0.17140625 7.421875 -0.1953125 C10.1135858 0.00860498 11.69904974 0.63448279 14 2 C13.67 2.66 13.34 3.32 13 4 C11.68 3.67 10.36 3.34 9 3 C9 2.34 9 1.68 9 1 C7.4221875 1.4640625 7.4221875 1.4640625 5.8125 1.9375 C2.87247604 2.75685094 -0.00161623 3.45483931 -3 4 C-2.67 3.34 -2.34 2.68 -2 2 C-1.34 2 -0.68 2 0 2 C0 1.34 0 0.68 0 0 Z " fill="#78C8D0" transform="translate(144,31)"/>
<path d="M0 0 C3.96 0.33 7.92 0.66 12 1 C11.67 1.66 11.34 2.32 11 3 C7.7 3 4.4 3 1 3 C0.67 2.01 0.34 1.02 0 0 Z " fill="#9ED7DD" transform="translate(72,125)"/>
<path d="M0 0 C3.63 0 7.26 0 11 0 C11 0.33 11 0.66 11 1 C9.205625 1.12375 9.205625 1.12375 7.375 1.25 C3.0904013 1.76658282 0.44736164 3.37343875 -3 6 C-3.99 6.495 -3.99 6.495 -5 7 C-4.1875 5.0625 -4.1875 5.0625 -3 3 C-2.01 2.67 -1.02 2.34 0 2 C0 1.34 0 0.68 0 0 Z " fill="#8FD1D8" transform="translate(108,31)"/>
<path d="M0 0 C3.3 0 6.6 0 10 0 C10 0.66 10 1.32 10 2 C4.06 2.495 4.06 2.495 -2 3 C-1.34 2.67 -0.68 2.34 0 2 C0 1.34 0 0.68 0 0 Z " fill="#9FD8DE" transform="translate(109,66)"/>
<path d="M0 0 C0.33 0.66 0.66 1.32 1 2 C-2.20380017 4.13586678 -3.01939967 4.23132175 -6.6875 4.125 C-7.49574219 4.10695312 -8.30398437 4.08890625 -9.13671875 4.0703125 C-10.05904297 4.03550781 -10.05904297 4.03550781 -11 4 C-11.33 3.34 -11.66 2.68 -12 2 C-9.36 2.33 -6.72 2.66 -4 3 C-4 2.34 -4 1.68 -4 1 C-2.68 0.67 -1.36 0.34 0 0 Z " fill="#78C8D0" transform="translate(50,159)"/>
</svg>
